<svg height="511pt" viewBox="1 -1 511.99996 511" width="511pt" xmlns="http://www.w3.org/2000/svg" fill="#09aa93"><path d="m36.570312 24.160156h-9.140624c-15.148438 0-27.429688 12.28125-27.429688 27.429688v347.664062c7.867188-6.050781 17.503906-9.347656 27.429688-9.378906h9.140624c9.925782.03125 19.5625 3.328125 27.429688 9.378906v-347.664062c0-15.148438-12.28125-27.429688-27.429688-27.429688zm0 0"/><path d="m36.570312 408.160156h-9.140624c-15.148438 0-27.429688 12.28125-27.429688 27.429688h64c0-15.148438-12.28125-27.429688-27.429688-27.429688zm0 0"/><path d="m129.988281 481.613281 23.398438-28.105469 28.109375 23.398438-23.398438 28.105469zm0 0"/><path d="m379.820312 152.855469 77.324219-83.566407v-.128906h.109375l15.714844-16.96875-26.851562-24.839844-93.148438 100.664063zm0 0"/><path d="m458.515625 13.921875 12.414063-13.421875 26.847656 24.832031-12.414063 13.421875zm0 0"/><path d="m183.769531 431.238281c-3.875-3.234375-9.640625-2.714843-12.875 1.164063 0 0-.003906.003906-.003906.003906l-5.84375 7.03125 28.105469 23.398438 5.851562-7.023438c3.25-3.867188 2.746094-9.632812-1.117187-12.882812-.011719-.007813-.023438-.015626-.035157-.027344zm0 0"/><path d="m341.210938 167.648438 21.046874-6.136719-16.558593-15.3125zm0 0"/><path d="m475.429688 89.90625 17.671874-19.089844-6.710937-6.207031-10.960937 11.847656zm0 0"/><path d="m210.285156 234.445312h91.429688v91.429688h-91.429688zm0 0"/><path d="m475.429688 472.160156v-32.785156l-32.785157 32.785156zm0 0"/><path d="m457.144531 379.816406v-283.601562l-70.109375 75.765625c-.785156.808593-1.714844 1.464843-2.742187 1.929687-.246094.121094-.464844.21875-.714844.320313-.246094.101562-.429687.21875-.664063.292969l-51.203124 14.921874c-4.847657 1.414063-9.921876-1.371093-11.335938-6.21875-.421875-1.4375-.480469-2.957031-.171875-4.425781l10.914063-52.1875c.066406-.289062.210937-.554687.292968-.839843.082032-.28125.175782-.519532.285156-.785157.378907-.976562.929688-1.878906 1.625-2.660156l48.539063-52.453125h-299.574219v365.714844h62.171875l12.378907-14.875c9.691406-11.640625 26.988281-13.222656 38.628906-3.53125l14.054687 11.695312c2.246094 1.914063 4.164063 4.179688 5.683594 6.710938h188.820313zm-210.289062-255.085937h18.289062v18.289062h-18.289062zm18.289062 256h-18.289062v-18.285157h18.289062zm118.855469-36.570313h-256c-5.050781 0-9.144531-4.09375-9.144531-9.144531 0-5.046875 4.09375-9.140625 9.144531-9.140625h64v-100.570312c0-.195313.101562-.359376.109375-.558594.054687-.828125.21875-1.640625.496094-2.421875.082031-.292969.183593-.578125.300781-.859375.429688-.957032 1.019531-1.832032 1.746094-2.589844l54.855468-54.855469c3.570313-3.570312 9.359376-3.570312 12.929688 0l54.855469 54.855469c.726562.757812 1.316406 1.632812 1.746093 2.589844.117188.28125.21875.566406.300782.859375.277344.78125.441406 1.601562.496094 2.429687 0 .191406.109374.355469.109374.550782v100.570312h64c5.050782 0 9.144532 4.09375 9.144532 9.144531 0 5.046875-4.09375 9.140625-9.144532 9.140625zm0 0"/><path d="m256 183.375-32.785156 32.785156h65.570312zm0 0"/><path d="m359.617188 508.730469h152.382812v-160zm134.097656-27.425781c0 5.046874-4.09375 9.140624-9.144532 9.140624h-64c-5.046874 0-9.140624-4.09375-9.140624-9.144531 0-2.421875.964843-4.746093 2.675781-6.460937l64.003906-64c3.570313-3.570313 9.359375-3.570313 12.929687 0 1.710938 1.714844 2.675782 4.039062 2.675782 6.464844zm0 0"/></svg>