<svg height="464pt" viewBox="0 0 464 464" width="464pt" xmlns="http://www.w3.org/2000/svg" fill="#09aa93"><path d="m64 336h16v16h-16zm0 0"/><path d="m64 368h16v16h-16zm0 0"/><path d="m384 336h16v16h-16zm0 0"/><path d="m400 288h17.472656c3.3125 9.289062 12.113282 16 22.527344 16 13.230469 0 24-10.769531 24-24s-10.769531-24-24-24c-10.414062 0-19.214844 6.710938-22.527344 16h-17.472656v-64h16c26.472656 0 48-21.527344 48-48 0-23.894531-17.855469-44.320312-41.542969-47.503906l-8.632812-1.167969 1.894531-8.542969c.175781-2.242187.28125-4.503906.28125-6.785156 0-44.113281-35.886719-80-80-80-26 0-50.480469 12.710938-65.464844 33.992188l-.574218.734374-7.175782 8.027344-6.007812-8.761718c-19.097656-31.304688-52.28125-49.992188-88.777344-49.992188-57.34375 0-104 46.65625-104 104v9.257812l-9.160156-.707031c-2.59375-.375-4.769532-.550781-6.839844-.550781-26.472656 0-48 21.527344-48 48s21.527344 48 48 48h16v64h-17.472656c-3.3125-9.289062-12.113282-16-22.527344-16-13.230469 0-24 10.769531-24 24s10.769531 24 24 24c10.414062 0 19.214844-6.710938 22.527344-16h17.472656v32h16v-72h16v184h-16v-32h-16v32h-17.472656c-3.3125-9.289062-12.113282-16-22.527344-16-13.230469 0-24 10.769531-24 24s10.769531 24 24 24c10.414062 0 19.214844-6.710938 22.527344-16h49.472656v16h16v-256h16v-18.222656c-4.761719-2.777344-8-7.882813-8-13.777344v-48c0-8.824219 7.175781-16 16-16h192c8.824219 0 16 7.175781 16 16v48c0 5.894531-3.238281 11-8 13.777344v18.222656h16v256h16v-16h49.472656c3.3125 9.289062 12.113282 16 22.527344 16 13.230469 0 24-10.769531 24-24s-10.769531-24-24-24c-10.414062 0-19.214844 6.710938-22.527344 16h-17.472656v-32h-16v32h-16v-184h16v72h16zm40-16c4.414062 0 8 3.585938 8 8s-3.585938 8-8 8-8-3.585938-8-8 3.585938-8 8-8zm-416 16c-4.414062 0-8-3.585938-8-8s3.585938-8 8-8 8 3.585938 8 8-3.585938 8-8 8zm0 160c-4.414062 0-8-3.585938-8-8s3.585938-8 8-8 8 3.585938 8 8-3.585938 8-8 8zm72-216h-16v-24h16zm344 200c4.414062 0 8 3.585938 8 8s-3.585938 8-8 8-8-3.585938-8-8 3.585938-8 8-8zm-72-200v-24h16v24zm0 0"/><path d="m384 368h16v16h-16zm0 0"/><path d="m144 192h176v16h-176zm0 0"/><path d="m136 224v48h192.015625l-.015625-48zm144 32h-16v-16h16zm32 0h-16v-16h16zm0 0"/><path d="m144 384h176v16h-176zm0 0"/><path d="m136 320v48h192.015625l-.015625-48zm24 32h-16v-16h16zm32 0h-16v-16h16zm0 0"/><path d="m144 288h176v16h-176zm0 0"/><path d="m136 128v48h192.015625l-.015625-48zm32 32h-16v-16h16zm32 0h-16v-16h16zm0 0"/><path d="m136 416v48h192.015625l-.015625-48zm144 32h-16v-16h16zm32 0h-16v-16h16zm0 0"/></svg>