<?xml version="1.0" encoding="iso-8859-1"?>
<!-- Generator: Adobe Illustrator 16.0.0, SVG Export Plug-In . SVG Version: 6.00 Build 0)  -->
<!DOCTYPE svg PUBLIC "-//W3C//DTD SVG 1.1//EN" "http://www.w3.org/Graphics/SVG/1.1/DTD/svg11.dtd">
<svg version="1.1" id="Capa_1" xmlns="http://www.w3.org/2000/svg" xmlns:xlink="http://www.w3.org/1999/xlink" x="0px" y="0px"
	 width="950.002px" height="950.002px" viewBox="0 0 950.002 950.002" style="enable-background:new 0 0 950.002 950.002;"
	 xml:space="preserve" fill="#09aa93">
<g>
	<g>
		<path d="M110.677,905.72c12.932,12.933,33.899,12.933,46.832,0l437.854-437.854l-147.81-147.808L9.699,757.912
			c-12.933,12.932-12.933,33.899,0,46.831L110.677,905.72z"/>
		<path d="M932.007,346.334c-14.595-14.595-38.258-14.595-52.853,0l-14.095,14.094l-31.65-31.651l-130.37,130.37l31.652,31.651
			l-14.095,14.095c-14.595,14.595-14.595,38.258,0,52.853l7.047,7.047c14.596,14.596,38.259,14.596,52.854,0l158.558-158.558
			c14.596-14.595,14.596-38.258,0-52.853L932.007,346.334z"/>
		<path d="M454.761,213.893L583.589,85.066c-67.477-44.102-169.99-85.148-250.773-4.364
			C217.524,195.991,303.427,110.102,454.761,213.893z"/>
		<path d="M459.857,244.153c-14.596,14.595-14.596,38.258,0,52.853l5.374,5.374L613.04,450.189l5.374,5.374
			c7.297,7.297,16.862,10.945,26.426,10.945c9.564,0,19.129-3.648,26.427-10.945l14.094-14.095l130.37-130.37l14.094-14.094
			c14.595-14.595,14.595-38.258,0-52.853L671.267,85.595c-7.297-7.297-16.86-10.946-26.426-10.946
			c-9.564,0-19.129,3.649-26.426,10.946l-13.946,13.946L475.203,228.806L459.857,244.153z"/>
	</g>
</g>
<g>
</g>
<g>
</g>
<g>
</g>
<g>
</g>
<g>
</g>
<g>
</g>
<g>
</g>
<g>
</g>
<g>
</g>
<g>
</g>
<g>
</g>
<g>
</g>
<g>
</g>
<g>
</g>
<g>
</g>
</svg>
