<svg id="Capa_1" data-name="Capa 1" xmlns="http://www.w3.org/2000/svg" viewBox="0 0 487.6 487.6"><defs><style>.cls-1{fill:#09aa93;}</style></defs><title>piggy-bankV2</title><path class="cls-1" d="M451.7,179.23h-7.1c-11.8-30.3-31.6-57.8-58-80.1-3.7-13.4-.9-27.9,8.6-42.9a26.69,26.69,0,0,0,.8-27.4,27,27,0,0,0-23.5-13.9c-1.1,0-2.3.1-3.4.2-36.5,4.5-58.7,20.8-72,36.3-16-5-36.3-6.5-40.1-6.8A270.7,270.7,0,0,0,228.5,43c-60.7,0-117.8,20.8-160.9,58.4C24,139.53,0,190.43,0,244.63a178,178,0,0,0,4.9,41.7c.1.3.1.6.2.8l.1.5a191.24,191.24,0,0,0,15,40.2c10.9,23.4,23.9,43,38.5,58.1,20.2,20.8,23.7,47.2,24.2,57.8v5.9a15.53,15.53,0,0,0,.3,3.1,25.81,25.81,0,0,0,25.4,21.9h74.5a25.69,25.69,0,0,0,25.7-25.7v-3.4a262.62,262.62,0,0,0,32,.4v3a25.69,25.69,0,0,0,25.7,25.7H341a25.69,25.69,0,0,0,25.7-25.7v-18.2c.1-4.2,1.7-24.1,20.6-41.3.9-.8,1.9-1.6,2.8-2.4l.2-.2a2.34,2.34,0,0,0,.7-.7c24.9-22.3,43.7-49.5,54.6-79.2h5.9a36.15,36.15,0,0,0,36.1-36.1v-55.7A35.74,35.74,0,0,0,451.7,179.23Zm-184.62-93c-8.85,7.88-6.64-6.83-53.63-2.75s-42.23,15.88-50.71,7.87c-10.32-9.75,3.42-22,50.41-26S278.29,76.23,267.08,86.23ZM372,184.93a24.13,24.13,0,1,1,24.13-24.12A24.12,24.12,0,0,1,372,184.93Z"/></svg>