<svg height="640pt" viewBox="-20 -130 640 640" width="640pt" xmlns="http://www.w3.org/2000/svg" fill="#09aa93"><path d="m590 352.667969c-11.113281.28125-22.054688-2.785157-31.402344-8.800781-25.359375-14.9375-56.835937-14.9375-82.195312 0-19.328125 11.734374-43.574219 11.734374-62.902344 0-25.367188-14.9375-56.835938-14.9375-82.203125 0-19.285156 11.734374-43.507813 11.734374-62.796875 0-12.347656-7.585938-26.609375-11.480469-41.097656-11.199219-14.492188-.28125-28.753906 3.613281-41.105469 11.199219-9.34375 6.015624-20.285156 9.082031-31.394531 8.800781-11.113282.253906-22.042969-2.808594-31.402344-8.800781-12.304688-7.605469-26.542969-11.492188-41-11.199219-14.488281-.28125-28.753906 3.613281-41.097656 11.199219-9.355469 6.007812-20.292969 9.066406-31.402344 8.800781-5.523438 0-10 4.476562-10 10 0 5.519531 4.476562 10 10 10 14.488281.277343 28.753906-3.613281 41.097656-11.203125 9.347656-6.015625 20.289063-9.082032 31.402344-8.796875 11.109375-.269531 22.046875 2.792969 31.402344 8.796875 12.300781 7.609375 26.535156 11.496094 41 11.203125 14.488281.292969 28.761718-3.601563 41.097656-11.203125 9.351562-6.003906 20.289062-9.066406 31.402344-8.796875 11.109375-.285157 22.050781 2.78125 31.394531 8.796875 25.367187 14.9375 56.835937 14.9375 82.203125 0 19.289062-11.734375 43.511719-11.734375 62.796875 0 25.367187 14.9375 56.835937 14.9375 82.203125 0 19.328125-11.734375 43.574219-11.734375 62.902344 0 12.34375 7.589844 26.609375 11.480468 41.097656 11.203125 5.523438 0 10-4.480469 10-10 0-5.523438-4.476562-10-10-10zm0 0"/><path d="m10 332.667969c14.488281.277343 28.753906-3.613281 41.097656-11.203125 9.347656-6.015625 20.289063-9.082032 31.402344-8.796875 11.109375-.269531 22.046875 2.792969 31.402344 8.796875 12.300781 7.609375 26.535156 11.496094 41 11.203125 14.488281.292969 28.761718-3.601563 41.097656-11.203125 9.351562-6.003906 20.289062-9.066406 31.402344-8.796875 11.109375-.285157 22.050781 2.78125 31.394531 8.796875 25.367187 14.9375 56.835937 14.9375 82.203125 0 19.289062-11.734375 43.511719-11.734375 62.796875 0 25.367187 14.9375 56.835937 14.9375 82.203125 0 19.328125-11.734375 43.574219-11.734375 62.902344 0 12.34375 7.589844 26.609375 11.480468 41.097656 11.203125 5.523438 0 10-4.480469 10-10 0-5.523438-4.476562-10-10-10-11.113281.28125-22.054688-2.785157-31.402344-8.800781-25.359375-14.9375-56.835937-14.9375-82.195312 0-19.328125 11.734374-43.574219 11.734374-62.902344 0-25.367188-14.9375-56.835938-14.9375-82.203125 0-19.285156 11.734374-43.507813 11.734374-62.796875 0-12.347656-7.585938-26.609375-11.480469-41.097656-11.199219-14.492188-.28125-28.753906 3.613281-41.105469 11.199219-9.34375 6.015624-20.285156 9.082031-31.394531 8.800781-11.113282.253906-22.042969-2.808594-31.402344-8.800781-12.304688-7.605469-26.542969-11.492188-41-11.199219-14.488281-.28125-28.753906 3.613281-41.097656 11.199219-9.355469 6.007812-20.292969 9.066406-31.402344 8.800781-5.523438 0-10 4.476562-10 10 0 5.519531 4.476562 10 10 10zm0 0"/><path d="m27 290.414062c5.027344-1.640624 9.859375-3.835937 14.402344-6.546874 12.34375-7.585938 26.609375-11.480469 41.097656-11.199219 14.457031-.292969 28.695312 3.59375 41 11.199219 9.359375 5.992187 20.289062 9.054687 31.402344 8.800781 11.109375.28125 22.050781-2.785157 31.394531-8.800781 12.351563-7.585938 26.613281-11.480469 41.105469-11.199219 14.488281-.28125 28.75 3.613281 41.097656 11.199219 19.289062 11.734374 43.511719 11.734374 62.796875 0 25.367187-14.9375 56.835937-14.9375 82.203125 0 19.328125 11.734374 43.574219 11.734374 62.902344 0 12.332031-7.617188 26.605468-11.507813 41.097656-11.199219 7.390625-.089844 14.765625.867187 21.890625 2.839843l59.5-118.300781c1.578125-3.09375 1.4375-6.792969-.378906-9.753906-1.8125-2.96875-5.035157-4.78125-8.511719-4.785156h-50v-140c0-5.523438-4.476562-10-10-10h-360c-5.523438 0-10 4.476562-10 10v170h-20v-150c0-5.523438-4.476562-10-10-10h-80c-4.9375.027343-9.125 3.621093-9.902344 8.5l-18.695312 121.5h-11.402344c-5.523438 0-10 4.476562-10 10v90c0 1.796875.484375 3.554687 1.402344 5.097656zm423-57.746093h-10c-5.523438 0-10-4.480469-10-10 0-5.523438 4.476562-10 10-10h10c5.523438 0 10 4.476562 10 10 0 5.519531-4.476562 10-10 10zm50 0h-10c-5.523438 0-10-4.480469-10-10 0-5.523438 4.476562-10 10-10h10c5.523438 0 10 4.476562 10 10 0 5.519531-4.476562 10-10 10zm-80-220h100v40h-100zm0 60h100v40h-100zm0 60h100v10h-50c-2.167969-.011719-4.273438.691406-6 2l-37.300781 28h-6.699219zm-170 100h-10c-5.523438 0-10-4.480469-10-10 0-5.523438 4.476562-10 10-10h10c5.523438 0 10 4.476562 10 10 0 5.519531-4.476562 10-10 10zm100 0h-10c-5.523438 0-10-4.480469-10-10 0-5.523438 4.476562-10 10-10h10c5.523438 0 10 4.476562 10 10 0 5.519531-4.476562 10-10 10zm60-10c0 5.519531-4.476562 10-10 10h-10c-5.523438 0-10-4.480469-10-10 0-5.523438 4.476562-10 10-10h10c5.523438 0 10 4.476562 10 10zm-110-210h100v40h-100zm0 60h100v40h-100zm0 60h100v40h-100zm-10 80h10c5.523438 0 10 4.476562 10 10 0 5.519531-4.476562 10-10 10h-10c-5.523438 0-10-4.480469-10-10 0-5.523438 4.476562-10 10-10zm-110-200h100v40h-100zm0 60h100v40h-100zm0 60h100v40h-100zm10 80h10c5.523438 0 10 4.476562 10 10 0 5.519531-4.476562 10-10 10h-10c-5.523438 0-10-4.480469-10-10 0-5.523438 4.476562-10 10-10zm-50 0h10c5.523438 0 10 4.476562 10 10 0 5.519531-4.476562 10-10 10h-10c-5.523438 0-10-4.480469-10-10 0-5.523438 4.476562-10 10-10zm-30 10c0 5.519531-4.476562 10-10 10h-10c-5.523438 0-10-4.480469-10-10 0-5.523438 4.476562-10 10-10h10c5.523438 0 10 4.476562 10 10zm-30-180h10c5.523438 0 10 4.476562 10 10 0 5.519531-4.476562 10-10 10h-10c-5.523438 0-10-4.480469-10-10 0-5.523438 4.476562-10 10-10zm0 0"/></svg>